<svg width="20" height="20" viewBox="0 0 20 20" fill="none" xmlns="http://www.w3.org/2000/svg">
<path d="M18.8 10.207C18.8 9.55703 18.7417 8.93203 18.6333 8.33203H10V11.882H14.9333C14.7167 13.0237 14.0667 13.9904 13.0917 14.6404V16.9487H16.0667C17.8 15.3487 18.8 12.9987 18.8 10.207Z" fill="#4285F4"/>
<path d="M9.99974 19.1667C12.4747 19.1667 14.5497 18.35 16.0664 16.95L13.0914 14.6417C12.2747 15.1917 11.2331 15.525 9.99974 15.525C7.61641 15.525 5.59141 13.9167 4.86641 11.75H1.81641V14.1167C3.32474 17.1083 6.41641 19.1667 9.99974 19.1667Z" fill="#34A853"/>
<path d="M4.86634 11.7406C4.68301 11.1906 4.57467 10.6073 4.57467 9.99896C4.57467 9.39062 4.68301 8.80729 4.86634 8.25729V5.89062H1.81634C1.19134 7.12396 0.833008 8.51562 0.833008 9.99896C0.833008 11.4823 1.19134 12.874 1.81634 14.1073L4.19134 12.2573L4.86634 11.7406Z" fill="#FBBC05"/>
<path d="M9.99974 4.48203C11.3497 4.48203 12.5497 4.9487 13.5081 5.8487L16.1331 3.2237C14.5414 1.74036 12.4747 0.832031 9.99974 0.832031C6.41641 0.832031 3.32474 2.89036 1.81641 5.89036L4.86641 8.25703C5.59141 6.09036 7.61641 4.48203 9.99974 4.48203Z" fill="#EA4335"/>
</svg>
