<svg width="1024" height="1024" viewBox="0 0 1024 1024" fill="none" xmlns="http://www.w3.org/2000/svg">
<path d="M923.09 189.968L764.19 834.969C757.715 861.337 735.967 883.874 710.699 893.291C703.66 895.929 696.368 897.498 689.077 897.938C689.014 897.875 688.951 897.875 688.888 897.938C687.82 898 686.689 898 685.62 898H306.096V897.938L403.334 503.365L409.682 477.626L423.133 422.881L435.39 373.16L454.938 293.869L457.892 281.878L480.521 189.968C489.069 155.188 524.269 127 559.154 127H875.507C910.393 127 931.701 155.188 923.09 189.968Z" fill="url(#paint0_linear_20721_7273)"/>
<path d="M673.369 897.874C544.856 892.661 555.43 784.193 563.439 745.253L640.721 429.877C643.406 418.921 641.036 407.327 634.274 398.314C600.539 353.344 567.55 309.449 553.607 290.901C549.231 285.08 542.401 281.676 535.136 281.676H378.038C370.839 281.676 363.855 284.141 358.24 288.664L218.29 401.4C209.301 408.642 202.937 418.654 200.183 429.889L100.882 835.005C92.3726 869.799 113.519 898 148.244 898H675.058C674.496 898 673.932 897.937 673.369 897.874ZM409.211 502.944C407.272 503.133 405.458 503.259 403.643 503.259C364.851 503.887 341.951 470.788 355.466 431.408C365.978 400.946 396.635 376.263 427.731 373.249C430.422 372.997 433.049 372.872 435.552 372.997C450.693 373.249 463.269 378.713 471.903 387.757C484.792 401.009 489.297 421.798 481.413 444.722C472.341 471.039 448.378 492.958 422.037 500.433C417.783 501.688 413.528 502.505 409.211 502.944Z" fill="url(#paint1_linear_20721_7273)"/>
<defs>
<linearGradient id="paint0_linear_20721_7273" x1="615.548" y1="-163.698" x2="615.548" y2="1339" gradientUnits="userSpaceOnUse">
<stop stop-color="#A6FE5A"/>
<stop offset="0.365155" stop-color="#00DBEE"/>
<stop offset="0.758701" stop-color="#2749F2"/>
</linearGradient>
<linearGradient id="paint1_linear_20721_7273" x1="387.029" y1="905.648" x2="387.029" y2="416.908" gradientUnits="userSpaceOnUse">
<stop stop-color="#5200BC"/>
<stop offset="1" stop-color="#FF5A00"/>
</linearGradient>
</defs>
</svg>
